<svg width="24" height="24" viewBox="0 0 24 24" fill="none" xmlns="http://www.w3.org/2000/svg">
<path d="M12 8.75C10.2051 8.75 8.75 10.2051 8.75 12C8.75 13.7949 10.2051 15.25 12 15.25C13.7949 15.25 15.25 13.7949 15.25 12C15.25 10.2051 13.7949 8.75 12 8.75Z" fill="#476385"/>
<path fill-rule="evenodd" clip-rule="evenodd" d="M6.76924 3.08145C10.2174 2.69607 13.7821 2.69607 17.2302 3.08145C19.1286 3.29362 20.6598 4.7894 20.8826 6.69445C21.2949 10.2195 21.2949 13.7805 20.8826 17.3055C20.6598 19.2106 19.1286 20.7064 17.2302 20.9185C13.7821 21.3039 10.2174 21.3039 6.76924 20.9185C4.87084 20.7064 3.33965 19.2106 3.11683 17.3055C2.70455 13.7805 2.70455 10.2195 3.11683 6.69445C3.33965 4.7894 4.87084 3.29362 6.76924 3.08145ZM16.9997 5.99998C16.4474 5.99998 15.9997 6.4477 15.9997 6.99998C15.9997 7.55226 16.4474 7.99998 16.9997 7.99998C17.552 7.99998 17.9997 7.55226 17.9997 6.99998C17.9997 6.4477 17.552 5.99998 16.9997 5.99998ZM7.2497 12C7.2497 9.37663 9.37635 7.24998 11.9997 7.24998C14.6231 7.24998 16.7497 9.37663 16.7497 12C16.7497 14.6234 14.6231 16.75 11.9997 16.75C9.37635 16.75 7.2497 14.6234 7.2497 12Z" fill="#476385"/>
</svg>
