<svg width="24" height="24" viewBox="0 0 24 24" fill="none" xmlns="http://www.w3.org/2000/svg">
<g clip-path="url(#clip0_1217_253)">
<path d="M15.1498 8.4C14.3834 8.39737 13.6239 8.54589 12.9149 8.83707C12.2059 9.12826 11.5613 9.55638 11.018 10.0969C10.4746 10.6375 10.0432 11.2799 9.74837 11.9874C9.45354 12.6949 9.30111 13.4535 9.2998 14.22V20.1C9.2998 20.3387 9.39463 20.5676 9.56341 20.7364C9.73219 20.9052 9.96111 21 10.1998 21H12.2998C12.5385 21 12.7674 20.9052 12.9362 20.7364C13.105 20.5676 13.1998 20.3387 13.1998 20.1V14.22C13.1996 13.9474 13.2569 13.6778 13.3678 13.4288C13.4788 13.1798 13.641 12.957 13.8439 12.7749C14.0467 12.5928 14.2857 12.4555 14.5452 12.372C14.8046 12.2884 15.0788 12.2605 15.3498 12.29C15.8358 12.3512 16.2825 12.5887 16.605 12.9573C16.9276 13.326 17.1036 13.8002 17.0998 14.29V20.1C17.0998 20.3387 17.1946 20.5676 17.3634 20.7364C17.5322 20.9052 17.7611 21 17.9998 21H20.0998C20.3385 21 20.5674 20.9052 20.7362 20.7364C20.905 20.5676 20.9998 20.3387 20.9998 20.1V14.22C20.9985 13.4535 20.8461 12.6949 20.5512 11.9874C20.2564 11.2799 19.825 10.6375 19.2816 10.0969C18.7383 9.55638 18.0937 9.12826 17.3847 8.83707C16.6757 8.54589 15.9163 8.39737 15.1498 8.4Z" fill="#476385"/>
<path d="M6.6 9.29999H3.9C3.40294 9.29999 3 9.70293 3 10.2V20.1C3 20.597 3.40294 21 3.9 21H6.6C7.09706 21 7.5 20.597 7.5 20.1V10.2C7.5 9.70293 7.09706 9.29999 6.6 9.29999Z" fill="#476385"/>
<path d="M5.25 7.5C6.49264 7.5 7.5 6.49264 7.5 5.25C7.5 4.00736 6.49264 3 5.25 3C4.00736 3 3 4.00736 3 5.25C3 6.49264 4.00736 7.5 5.25 7.5Z" fill="#476385"/>
</g>
<defs>
<clipPath id="clip0_1217_253">
<rect width="24" height="24" fill="white"/>
</clipPath>
</defs>
</svg>
